<svg width="404" height="453" viewBox="0 0 404 453" fill="none" xmlns="http://www.w3.org/2000/svg">
<path d="M173.046 33.7668C181.329 4.74421 222.461 4.7441 230.743 33.7668L256.398 123.661C257.286 126.775 260.485 128.622 263.626 127.834L354.304 105.105C383.58 97.7666 404.145 133.387 383.152 155.072L318.129 222.236C315.877 224.562 315.877 228.257 318.129 230.583L383.152 297.747C404.145 319.432 383.58 355.052 354.304 347.714L263.626 324.985C260.485 324.197 257.286 326.044 256.398 329.157L230.743 419.052C222.461 448.075 181.329 448.075 173.046 419.052L147.392 329.157C146.503 326.044 143.304 324.197 140.163 324.985L49.4856 347.714C20.2099 355.052 -0.355185 319.432 20.6379 297.747L85.6604 230.583C87.9127 228.257 87.9127 224.562 85.6604 222.236L20.6379 155.072C-0.35511 133.387 20.2098 97.7665 49.4856 105.105L140.163 127.834C143.304 128.622 146.503 126.775 147.392 123.661L173.046 33.7668Z" stroke="#FFD463" stroke-width="24"/>
</svg>
