<svg width="839" height="539" viewBox="0 0 839 539" fill="none" xmlns="http://www.w3.org/2000/svg">
<path d="M95.0248 211.12C98.2284 206.848 101.432 202.577 115.096 188.897C128.759 175.217 152.786 152.258 137.666 183.679C122.546 215.1 67.5517 301.596 38.6873 348.024C9.82278 394.451 8.75493 398.189 44.512 359.536C80.269 320.882 152.883 239.725 194.295 194.18C235.707 148.634 243.716 141.159 246.24 139.978C248.764 138.797 245.56 144.136 203.865 201.614C162.17 259.092 82.0811 368.548 41.8908 424.934C1.7006 481.32 3.83632 481.32 66.8722 410.307C129.908 339.295 253.779 197.27 325.601 117.164C397.422 37.0591 413.44 23.1769 422.226 17.0934C431.011 11.0098 432.079 13.1455 381.639 93.8011C331.199 174.457 229.219 333.567 219.398 358.937C209.577 384.307 295.005 271.114 346.756 205.594C398.506 140.075 413.99 125.659 396.872 151.336C379.754 177.013 329.565 243.22 318.126 263.712C306.687 284.203 335.519 256.973 348.77 248.284C362.021 239.596 358.818 250.274 351.561 265.653C344.305 281.032 333.092 300.787 321.176 317.905C309.26 335.023 296.979 348.906 291.721 354.722C288.748 358.011 314.291 332.16 352.556 295.505C371.776 277.093 380.304 273.152 382.739 273.403C384.084 273.542 381.437 278.459 368.865 295.068C356.294 311.676 332.801 341.042 322.3 354.301C311.8 367.561 315.003 363.823 333.205 348.016C351.408 332.208 384.511 304.444 403.433 289.073C422.355 273.703 426.093 271.567 427.217 273.67C428.342 275.774 426.74 282.181 411.232 304.169C395.723 326.157 366.357 363.532 350.429 383.32C334.5 403.107 332.898 404.175 351.561 387.64C370.224 371.104 409.201 336.933 426.61 325.469C444.02 314.006 438.68 326.286 416.708 359.042C394.737 391.798 356.294 444.657 335.689 472.421C315.084 500.185 313.482 501.253 314.526 500.735C315.569 500.218 319.307 498.082 374.892 443.856C430.477 389.63 537.797 283.378 601.359 216.629C664.92 149.88 681.472 125.853 695.338 103.865C709.204 81.8767 719.883 62.6552 726.185 51.6854C732.487 40.7156 734.088 38.5799 683.389 119.171C632.691 199.762 529.642 363.144 474.955 449.179C420.268 535.214 417.064 538.952 450.92 497.362C484.776 455.772 555.789 368.742 599.045 317.501C642.301 266.26 655.65 253.446 641.169 274.075C626.688 294.704 583.974 349.164 561.169 378.021C538.363 406.877 536.761 408.479 559.696 387.413C582.631 366.347 630.15 322.565 657.567 298.409C684.983 274.253 690.856 271.049 695.217 269.132C699.577 267.215 702.247 266.681 701.219 273.614C700.192 280.547 695.387 294.963 673.69 326.95C651.993 358.937 613.55 408.058 595.882 430.694C578.214 453.329 582.485 447.99 603.373 427.62C624.261 407.249 661.636 372.01 683.559 352.255C705.483 332.499 710.822 329.296 713.039 329.781C717.819 330.828 693.332 360.296 665.802 389.986C652.287 404.561 714.64 354.067 725.683 350.823C730.165 349.506 732.988 351.85 734.363 355.078C743.996 377.686 703.994 407.363 692.935 416.811C678.583 429.075 736.257 375.618 738.958 376.678C749.784 380.924 731.985 394.467 730.084 395.835C725.732 398.965 740.01 384.274 746.749 380.488C748.959 379.246 749.75 382.041 749.491 384.476C749.233 386.911 748.165 389.581 748.682 391.757C749.751 396.249 756.74 398.253 763.729 399.871C787.16 405.295 813.369 383.724 820.658 381.273C824.395 380.016 816.702 409.903 808.863 443.346C806.327 454.164 811.168 453.297 813.894 452.213C816.621 451.129 818.223 450.061 819.315 452.18C826.513 466.15 818.805 475.366 818.255 478.602C818.773 479.702 820.908 479.702 822.009 480.77C823.109 481.837 823.109 483.973 823.109 486.174" stroke="#005630" stroke-width="30" stroke-linecap="round"/>
</svg>
